<?xml version="1.0" encoding="UTF-8"?>
<!DOCTYPE svg PUBLIC "-//W3C//DTD SVG 1.1//EN" "http://www.w3.org/Graphics/SVG/1.1/DTD/svg11.dtd">
<!-- Creator: CorelDRAW X6 -->
<svg xmlns="http://www.w3.org/2000/svg" xml:space="preserve" width="3.08002in" height="2.17333in" version="1.1" style="shape-rendering:geometricPrecision; text-rendering:geometricPrecision; image-rendering:optimizeQuality; fill-rule:evenodd; clip-rule:evenodd"
viewBox="0 0 3080 2173"
 xmlns:xlink="http://www.w3.org/1999/xlink">
 <defs>
  <style type="text/css">
   <![CDATA[
    .str0 {stroke:#3E4095;stroke-width:6.94488}
    .str1 {stroke:#373435;stroke-width:33.3346}
    .fil0 {fill:none}
    .fil1 {fill:#6B809B}
    .fil2 {fill:#00AFEF}
   ]]>
  </style>
 </defs>
 <g id="Layer_x0020_1">
  <metadata id="CorelCorpID_0Corel-Layer"/>
  <path class="fil0 str0" d="M510 283c0,-13 587,-240 1027,133l0 1213c0,0 -653,-533 -1160,-147 -507,387 133,-1200 133,-1200z"/>
  <path class="fil0 str0" d="M2534 284c0,-13 -589,-240 -1030,133l0 1213c0,0 656,-533 1164,-147 508,387 -134,-1200 -134,-1200z"/>
  <path class="fil1 str1" d="M1537 1605l0 -1188c-5,-5 -11,-9 -16,-14 -6,5 -11,9 -17,14l0 1188c7,5 12,9 17,13 5,-3 10,-8 16,-12z"/>
  <path class="fil2 str1" d="M2667 1484c-440,-335 -991,20 -1131,121l0 25c0,0 -6,-5 -16,-13 -11,8 -17,13 -17,13l0 200c0,0 656,-533 1164,-147 184,140 217,22 185,-185 -22,61 -78,67 -185,-14z"/>
  <path class="fil2 str1" d="M2667 1484c-440,-335 -991,20 -1131,121l0 25c0,0 -6,-5 -16,-13 -11,8 -17,13 -17,13l0 200c0,0 656,-533 1164,-147 184,140 217,22 185,-185 -22,61 -78,67 -185,-14z"/>
  <path class="fil2 str1" d="M379 1484c425,-335 957,20 1092,121l0 25c0,0 6,-5 16,-13 11,8 16,13 16,13l0 200c0,0 -633,-533 -1124,-147 -177,140 -210,22 -179,-185 21,61 75,67 179,-14z"/>
 </g>
</svg>
